<svg width="32" height="32" viewBox="0 0 32 32" fill="none" xmlns="http://www.w3.org/2000/svg">
<path d="M16.4902 3.00977C15.04 5.0463 15.0002 6.98453 15 7.00511C15.0014 7.26985 15.1078 7.52321 15.2958 7.70965C15.4838 7.89608 15.738 8.00036 16.0027 7.99963C16.2675 7.99891 16.5211 7.89322 16.7081 7.70576C16.895 7.5183 17 7.26435 17 6.99961C17 6.73439 17.1053 6.48004 17.2929 6.2925C17.4804 6.10496 17.7348 5.99961 18 5.99961C18.2652 5.99961 18.5196 6.10496 18.7071 6.2925C18.8946 6.48004 19 6.73439 19 6.99961C19 7.79526 18.6839 8.55832 18.1213 9.12093C17.5587 9.68354 16.7956 9.99961 16 9.99961C15.2043 9.99961 14.4413 9.68354 13.8787 9.12093C13.3161 8.55832 13 7.79526 13 6.99961C13 6.90851 13.0156 5.19651 14.0721 3.14277C10.7639 3.63657 7.77301 5.38583 5.72079 8.02718C3.66856 10.6685 2.71274 13.9989 3.05186 17.3266C3.39098 20.6543 4.99898 23.7234 7.54184 25.8965C10.0847 28.0695 13.367 29.1795 16.7068 28.9958C20.0467 28.8121 23.1874 27.3488 25.4766 24.91C27.7658 22.4711 29.0275 19.2442 28.9996 15.8994C28.9717 12.5546 27.6564 9.34912 25.3268 6.94878C22.9973 4.54844 19.8326 3.13776 16.4902 3.00977V3.00977ZM9.99999 15.9996C9.99999 15.7029 10.088 15.4129 10.2528 15.1663C10.4176 14.9196 10.6519 14.7273 10.926 14.6138C11.2001 14.5003 11.5017 14.4706 11.7926 14.5284C12.0836 14.5863 12.3509 14.7292 12.5606 14.9389C12.7704 15.1487 12.9133 15.416 12.9712 15.707C13.029 15.9979 12.9993 16.2995 12.8858 16.5736C12.7723 16.8477 12.58 17.082 12.3333 17.2468C12.0867 17.4116 11.7967 17.4996 11.5 17.4996C11.1022 17.4996 10.7206 17.3416 10.4393 17.0603C10.158 16.779 9.99999 16.3974 9.99999 15.9996ZM19.8708 21.8327C18.7233 22.5937 17.377 22.9996 16.0001 22.9996C14.6232 22.9996 13.2768 22.5938 12.1293 21.8329C12.02 21.7602 11.926 21.6666 11.8528 21.5576C11.7796 21.4486 11.7285 21.3262 11.7026 21.1975C11.6767 21.0688 11.6764 20.9362 11.7017 20.8073C11.727 20.6785 11.7774 20.5559 11.8501 20.4465C11.997 20.2256 12.2255 20.0721 12.4855 20.0198C12.6142 19.9939 12.7468 19.9936 12.8757 20.0189C13.0045 20.0442 13.1271 20.0946 13.2365 20.1673C14.056 20.7102 15.0172 20.9996 16.0001 20.9996C16.9831 20.9996 17.9443 20.7101 18.7637 20.1672C18.8731 20.0945 18.9957 20.0441 19.1245 20.0188C19.2534 19.9934 19.386 19.9938 19.5147 20.0197C19.6434 20.0456 19.7658 20.0966 19.8748 20.1699C19.9838 20.2431 20.0773 20.3371 20.15 20.4464C20.2227 20.5558 20.2732 20.6784 20.2985 20.8072C20.3238 20.9361 20.3235 21.0687 20.2976 21.1974C20.2716 21.3261 20.2206 21.4485 20.1474 21.5575C20.0742 21.6665 19.9802 21.76 19.8708 21.8327ZM20.5 17.4996C20.2033 17.4996 19.9133 17.4116 19.6666 17.2468C19.42 17.082 19.2277 16.8477 19.1142 16.5736C19.0006 16.2995 18.9709 15.9979 19.0288 15.707C19.0867 15.416 19.2296 15.1487 19.4393 14.9389C19.6491 14.7292 19.9164 14.5863 20.2074 14.5284C20.4983 14.4706 20.7999 14.5003 21.074 14.6138C21.3481 14.7273 21.5824 14.9196 21.7472 15.1663C21.912 15.4129 22 15.7029 22 15.9996C22 16.3974 21.842 16.779 21.5606 17.0603C21.2793 17.3416 20.8978 17.4996 20.5 17.4996Z" fill="#56666D"/>
</svg>
