<svg width="36" height="36" viewBox="0 0 36 36" fill="none" xmlns="http://www.w3.org/2000/svg">
<path d="M18 0C22.7739 0 27.3523 1.89642 30.7279 5.27208C34.1036 8.64773 36 13.2261 36 18C36 22.7739 34.1036 27.3523 30.7279 30.7279C27.3523 34.1036 22.7739 36 18 36C13.2261 36 8.64773 34.1036 5.27208 30.7279C1.89642 27.3523 0 22.7739 0 18C0 13.2261 1.89642 8.64773 5.27208 5.27208C8.64773 1.89642 13.2261 0 18 0ZM16.2 9C15.7226 9 15.2648 9.18964 14.9272 9.52721C14.5896 9.86477 14.4 10.3226 14.4 10.8V19.8C14.4 20.2774 14.5896 20.7352 14.9272 21.0728C15.2648 21.4104 15.7226 21.6 16.2 21.6H23.4C23.8774 21.6 24.3352 21.4104 24.6728 21.0728C25.0104 20.7352 25.2 20.2774 25.2 19.8C25.2 19.3226 25.0104 18.8648 24.6728 18.5272C24.3352 18.1896 23.8774 18 23.4 18H18V10.8C18 10.3226 17.8104 9.86477 17.4728 9.52721C17.1352 9.18964 16.6774 9 16.2 9Z" fill="black"/>
</svg>
