<svg width="40" height="40" viewBox="0 0 40 40" fill="none" xmlns="http://www.w3.org/2000/svg">
<path d="M21.1924 10.2339C20.2722 10.2334 19.356 10.3573 18.469 10.6025C18.1185 10.0286 17.6925 9.50442 17.2024 9.04407L18.4788 7.22121C18.6419 6.98727 18.7055 6.6982 18.6557 6.41742C18.6059 6.13663 18.4467 5.88708 18.2132 5.72351C17.9796 5.55994 17.6906 5.49571 17.4097 5.54492C17.1289 5.59414 16.879 5.75277 16.7149 5.98601L15.4385 7.80888C14.3137 7.24124 13.0644 6.96531 11.8052 7.00645L11.418 4.81088C11.3936 4.67151 11.342 4.53831 11.2661 4.41891C11.1902 4.29951 11.0915 4.19624 10.9756 4.11502C10.8598 4.03379 10.729 3.97619 10.5909 3.94552C10.4528 3.91485 10.31 3.91171 10.1706 3.93627C10.0313 3.96083 9.89813 4.01261 9.77882 4.08866C9.6595 4.16471 9.55634 4.26353 9.47524 4.37948C9.39414 4.49542 9.33669 4.62621 9.30618 4.76437C9.27566 4.90253 9.27267 5.04535 9.29739 5.18467L9.68429 7.37893C8.48623 7.76917 7.40662 8.45669 6.54628 9.37725L4.72099 8.09918C4.48706 7.9354 4.19764 7.87125 3.91642 7.92086C3.63519 7.97046 3.38519 8.12975 3.22141 8.36368C3.05763 8.59761 2.99349 8.88703 3.04309 9.16825C3.0927 9.44948 3.25199 9.69948 3.48592 9.86326L5.31089 11.1411C4.73973 12.2642 4.46253 13.5137 4.50516 14.773L2.31073 15.1598C2.04561 15.2066 1.80763 15.351 1.6437 15.5645C1.47976 15.7781 1.40176 16.0453 1.42507 16.3135C1.44837 16.5817 1.57129 16.8314 1.7696 17.0135C1.96792 17.1955 2.22723 17.2967 2.49644 17.2971C2.55953 17.297 2.62251 17.2915 2.68465 17.2806L4.87986 16.8936C5.07286 17.4814 5.33755 18.0431 5.66796 18.5662C4.63623 19.522 3.91662 20.7666 3.60307 22.1377C3.28952 23.5087 3.3966 24.9424 3.91032 26.2517C4.42405 27.5609 5.32055 28.6849 6.48282 29.4768C7.64508 30.2688 9.0191 30.6919 10.4255 30.691H21.1924C23.9052 30.691 26.5069 29.6134 28.4251 27.6952C30.3434 25.7769 31.421 23.1753 31.421 20.4625C31.421 17.7497 30.3434 15.148 28.4251 13.2298C26.5069 11.3115 23.9052 10.2339 21.1924 10.2339ZM6.74185 15.4955C6.74067 15.4878 6.74034 15.4802 6.739 15.4725C6.73751 15.4641 6.73502 15.4562 6.73334 15.4478C6.49119 14.0574 6.80863 12.6276 7.61644 11.4702C7.6212 11.4637 7.62672 11.4581 7.63135 11.4515C7.63654 11.4441 7.64065 11.4362 7.64562 11.4287C8.45642 10.2768 9.68905 9.49138 11.0757 9.24312C11.0857 9.24164 11.0956 9.24095 11.1056 9.23922C11.115 9.23758 11.1239 9.23478 11.1332 9.23291C12.5022 8.99733 13.9092 9.30063 15.0596 10.0793C15.0813 10.0971 15.1031 10.115 15.1265 10.1314C15.1436 10.1433 15.1619 10.1518 15.1794 10.1626C15.6616 10.5083 16.083 10.9317 16.4263 11.4156C14.2349 12.5751 12.5359 14.487 11.6418 16.7995C11.2402 16.7292 10.8332 16.6939 10.4255 16.694C9.3983 16.6932 8.38364 16.9199 7.45446 17.3579C7.10312 16.7868 6.86144 16.1552 6.74185 15.4955Z" fill="black"/>
</svg>
