<svg width="50" height="50" viewBox="0 0 50 50" fill="none" xmlns="http://www.w3.org/2000/svg">
<rect width="50" height="50" rx="25" fill="#DD4C56"/>
<path d="M21.0415 18.0424C20.9591 17.4745 20.9998 16.8956 21.1609 16.3448C21.322 15.794 21.5997 15.2843 21.9752 14.8504C22.3507 14.4165 22.8152 14.0684 23.3371 13.8298C23.859 13.5912 24.4261 13.4678 25 13.4678C25.5738 13.4678 26.141 13.5912 26.6629 13.8298C27.1848 14.0684 27.6493 14.4165 28.0248 14.8504C28.4003 15.2843 28.678 15.794 28.8391 16.3448C29.0002 16.8956 29.0409 17.4745 28.9585 18.0424L27.6305 27.3335C27.5386 27.9656 27.2222 28.5434 26.7391 28.9613C26.2561 29.3792 25.6387 29.6092 25 29.6092C24.3613 29.6092 23.7439 29.3792 23.2608 28.9613C22.7778 28.5434 22.4614 27.9656 22.3694 27.3335L21.0415 18.0424Z" fill="white"/>
<path d="M27.3054 34.2273C27.3054 34.8388 27.0625 35.4252 26.6301 35.8576C26.1978 36.2899 25.6114 36.5328 24.9999 36.5328C24.3885 36.5328 23.8021 36.2899 23.3697 35.8576C22.9374 35.4252 22.6945 34.8388 22.6945 34.2273C22.6945 33.6159 22.9374 33.0295 23.3697 32.5971C23.8021 32.1648 24.3885 31.9219 24.9999 31.9219C25.6114 31.9219 26.1978 32.1648 26.6301 32.5971C27.0625 33.0295 27.3054 33.6159 27.3054 34.2273Z" fill="white"/>
</svg>
