<svg width="32" height="32" viewBox="0 0 32 32" fill="none" xmlns="http://www.w3.org/2000/svg">
<path d="M15.9986 9.97159C15.998 9.95352 15.9974 9.93545 15.9958 9.91727C15.9943 9.89902 15.9921 9.88101 15.9896 9.86307C15.9883 9.85379 15.9879 9.84457 15.9864 9.83523L14.9864 3.83523C14.9649 3.70563 14.918 3.58154 14.8485 3.47005C14.779 3.35856 14.6882 3.26185 14.5814 3.18546C14.4745 3.10907 14.3536 3.05449 14.2256 3.02483C14.0976 2.99518 13.965 2.99103 13.8355 3.01263C13.7059 3.03424 13.5818 3.08116 13.4704 3.15073C13.3589 3.2203 13.2623 3.31114 13.186 3.41807C13.1096 3.52501 13.0551 3.64593 13.0256 3.77393C12.996 3.90194 12.9919 4.03452 13.0136 4.16409L13.8195 8.99966H11.5V3.99966C11.5 3.73445 11.3946 3.48009 11.2071 3.29256C11.0196 3.10502 10.7652 2.99966 10.5 2.99966C10.2348 2.99966 9.98043 3.10502 9.79289 3.29256C9.60536 3.48009 9.5 3.73445 9.5 3.99966V8.99966H7.18048L7.98639 4.16409C8.00807 4.03452 8.00402 3.90194 7.97444 3.77393C7.94487 3.64593 7.89037 3.52501 7.81405 3.41807C7.73772 3.31114 7.64108 3.2203 7.52963 3.15073C7.41819 3.08116 7.29412 3.03424 7.16454 3.01263C7.03495 2.99103 6.90237 2.99518 6.77439 3.02483C6.6464 3.05449 6.52551 3.10907 6.41863 3.18546C6.31175 3.26185 6.22096 3.35856 6.15147 3.47005C6.08197 3.58154 6.03513 3.70563 6.01361 3.83523L5.01361 9.83523C5.01209 9.84457 5.01172 9.85379 5.01038 9.86307C5.00794 9.88101 5.00568 9.89902 5.00415 9.91727C5.00262 9.93545 5.00195 9.95352 5.0014 9.97159C5.00116 9.98099 5 9.9902 5 9.99966C5 10.0086 5.00061 10.0173 5.00067 10.0262C5.00086 10.0323 5.00086 10.0384 5.00116 10.0445C5.01324 11.3213 5.46853 12.5542 6.28916 13.5323C7.1098 14.5105 8.24479 15.1731 9.5 15.4069V27.9997C9.5 28.2649 9.60536 28.5192 9.79289 28.7068C9.98043 28.8943 10.2348 28.9997 10.5 28.9997C10.7652 28.9997 11.0196 28.8943 11.2071 28.7068C11.3946 28.5192 11.5 28.2649 11.5 27.9997V15.4069C12.7552 15.1731 13.8902 14.5105 14.7108 13.5323C15.5315 12.5542 15.9868 11.3213 15.9988 10.0445C15.9991 10.0384 15.9991 10.0323 15.9993 10.0261C15.9994 10.0173 16 10.0086 16 9.99966C16 9.9902 15.9988 9.98099 15.9986 9.97159Z" fill="#56666D"/>
<path d="M26.4991 3.9823C26.4988 3.96168 26.4976 3.94104 26.496 3.92035C26.4949 3.90631 26.4936 3.8924 26.4919 3.87854C26.4898 3.86127 26.4871 3.84399 26.484 3.82672C26.481 3.80933 26.4776 3.79211 26.4737 3.77508C26.4705 3.76154 26.467 3.74805 26.4633 3.73456C26.4577 3.71448 26.4517 3.6947 26.445 3.67517C26.4431 3.66956 26.4418 3.66388 26.4398 3.65826C26.4376 3.65222 26.4347 3.64661 26.4324 3.64062C26.4248 3.62103 26.4167 3.60179 26.408 3.58289C26.4024 3.57055 26.3965 3.55839 26.3904 3.54639C26.3822 3.53027 26.3735 3.51443 26.3644 3.49884C26.3563 3.48486 26.3481 3.47113 26.3394 3.45764C26.3312 3.44495 26.3226 3.43262 26.3138 3.42029C26.3032 3.4054 26.2925 3.39081 26.2811 3.37665C26.2728 3.36621 26.2642 3.35614 26.2555 3.34607C26.243 3.33167 26.2303 3.31744 26.2171 3.30383C26.2078 3.29431 26.1981 3.28516 26.1885 3.276C26.1752 3.26331 26.1618 3.25085 26.1478 3.23895C26.1365 3.22937 26.1249 3.22034 26.1132 3.21124C26.1002 3.20111 26.087 3.19104 26.0735 3.18152C26.0596 3.17181 26.0454 3.16272 26.031 3.15375C26.0189 3.14612 26.0067 3.13843 25.9942 3.13135C25.9779 3.12207 25.9613 3.11353 25.9444 3.10516C25.9329 3.09943 25.9214 3.09369 25.9096 3.08838C25.8919 3.08044 25.8739 3.07324 25.8557 3.06628C25.8436 3.06171 25.8316 3.05713 25.8192 3.05298C25.8018 3.04706 25.784 3.04187 25.7661 3.03693C25.7518 3.03296 25.7376 3.02924 25.7232 3.02588C25.7073 3.02228 25.6913 3.01916 25.6752 3.0163C25.6576 3.01312 25.6401 3.01044 25.6223 3.00824C25.6087 3.00659 25.595 3.00525 25.5813 3.00409C25.5608 3.00244 25.5402 3.0014 25.5195 3.00098C25.513 3.00086 25.5066 3 25.5 3C25.494 3 25.488 3.00079 25.4821 3.00092C25.4616 3.00128 25.4411 3.00238 25.4205 3.00403C25.4064 3.00513 25.3924 3.0064 25.3785 3.00812C25.3612 3.01025 25.344 3.01294 25.3267 3.01599C25.3093 3.01904 25.2921 3.0224 25.2751 3.02637C25.2615 3.02948 25.2481 3.03302 25.2346 3.03674C25.2145 3.04223 25.1947 3.04828 25.1752 3.05505C25.1696 3.05695 25.1639 3.05817 25.1583 3.06018C25.1459 3.06469 25.1338 3.07006 25.1215 3.07464C25.1169 3.07653 25.1121 3.07818 25.1075 3.08014C22.5313 4.04834 20.4682 7.2088 18.9754 12.4774C18.2982 14.9086 17.8069 17.3877 17.5057 19.8934C17.4908 20.0329 17.5054 20.174 17.5485 20.3075C17.5917 20.441 17.6625 20.564 17.7562 20.6683C17.85 20.7727 17.9647 20.8562 18.0928 20.9133C18.221 20.9704 18.3597 21 18.5 21H24.5V28C24.5 28.2652 24.6054 28.5196 24.7929 28.7071C24.9804 28.8946 25.2348 29 25.5 29C25.7652 29 26.0196 28.8946 26.2071 28.7071C26.3947 28.5196 26.5 28.2652 26.5 28V4C26.5 3.99402 26.4992 3.98828 26.4991 3.9823Z" fill="#56666D"/>
</svg>
