<svg width="42" height="42" viewBox="0 0 42 42" fill="none" xmlns="http://www.w3.org/2000/svg">
<rect width="42" height="42" rx="21" fill="#11222B"/>
<path d="M21 10C14.9254 10 10 14.9254 10 21C10 27.0746 14.9254 32 21 32C27.0746 32 32 27.0746 32 21C32 14.9254 27.0746 10 21 10ZM24.5382 21.1694L19.1757 25.071C19.1463 25.0921 19.1116 25.1047 19.0755 25.1074C19.0394 25.1101 19.0033 25.1029 18.971 25.0864C18.9388 25.0699 18.9118 25.0448 18.8928 25.0139C18.8739 24.9831 18.8639 24.9476 18.8638 24.9114V17.1132C18.8637 17.0769 18.8736 17.0413 18.8925 17.0103C18.9114 16.9793 18.9385 16.9542 18.9708 16.9377C19.0031 16.9211 19.0393 16.9139 19.0755 16.9167C19.1116 16.9195 19.1463 16.9323 19.1757 16.9536L24.5382 20.8527C24.5635 20.8706 24.5842 20.8943 24.5984 20.9219C24.6127 20.9494 24.6201 20.98 24.6201 21.011C24.6201 21.0421 24.6127 21.0727 24.5984 21.1002C24.5842 21.1278 24.5635 21.1515 24.5382 21.1694Z" fill="white"/>
</svg>
