<svg width="19" height="13" viewBox="0 0 19 13" fill="none" xmlns="http://www.w3.org/2000/svg">
<path d="M14 2.99985H11.914L13.207 1.70685C13.2998 1.614 13.3735 1.50378 13.4237 1.38247C13.474 1.26117 13.4998 1.13115 13.4998 0.999849C13.4998 0.868547 13.474 0.738531 13.4237 0.617223C13.3735 0.495916 13.2998 0.385694 13.207 0.292849C13.1142 0.200005 13.0039 0.126356 12.8826 0.0761089C12.7613 0.0258618 12.6313 0 12.5 0C12.3687 0 12.2387 0.0258618 12.1174 0.0761089C11.9961 0.126356 11.8858 0.200005 11.793 0.292849L8.086 3.99985L11.793 7.70685C11.8857 7.80003 11.9958 7.87398 12.1171 7.92444C12.2385 7.97491 12.3686 8.00088 12.5 8.00088C12.6314 8.00088 12.7615 7.97491 12.8829 7.92444C13.0042 7.87398 13.1143 7.80003 13.207 7.70685C13.2999 7.61406 13.3737 7.50386 13.424 7.38254C13.4743 7.26123 13.5002 7.13118 13.5002 6.99985C13.5002 6.86852 13.4743 6.73847 13.424 6.61716C13.3737 6.49584 13.2999 6.38564 13.207 6.29285L11.914 4.99985H14C15.379 4.99985 16.5 6.34585 16.5 7.99985C16.5 9.65385 15.154 10.9998 13.5 10.9998H5.5C3.846 10.9998 2.5 9.65385 2.5 7.99985C2.5 6.34585 3.846 4.99985 5.5 4.99985C5.76522 4.99985 6.01957 4.89449 6.20711 4.70696C6.39464 4.51942 6.5 4.26507 6.5 3.99985C6.5 3.73463 6.39464 3.48028 6.20711 3.29274C6.01957 3.10521 5.76522 2.99985 5.5 2.99985C2.743 2.99985 0.5 5.24285 0.5 7.99985C0.5 10.7568 2.743 12.9998 5.5 12.9998H13.5C16.257 12.9998 18.5 10.7568 18.5 7.99985C18.5 5.24285 16.481 2.99985 14 2.99985Z" fill="black"/>
</svg>
