<svg width="40" height="40" viewBox="0 0 40 40" fill="none" xmlns="http://www.w3.org/2000/svg">
<path d="M20 30.625C25.868 30.625 30.625 25.868 30.625 20C30.625 14.132 25.868 9.375 20 9.375C14.132 9.375 9.375 14.132 9.375 20C9.375 25.868 14.132 30.625 20 30.625Z" fill="black"/>
<path d="M20 6.875C20.1642 6.875 20.3267 6.84267 20.4784 6.77985C20.63 6.71703 20.7678 6.62496 20.8839 6.50889C21 6.39281 21.092 6.25501 21.1549 6.10336C21.2177 5.9517 21.25 5.78915 21.25 5.625V4.375C21.25 4.04348 21.1183 3.72554 20.8839 3.49112C20.6495 3.2567 20.3315 3.125 20 3.125C19.6685 3.125 19.3505 3.2567 19.1161 3.49112C18.8817 3.72554 18.75 4.04348 18.75 4.375V5.625C18.75 5.78915 18.7823 5.9517 18.8451 6.10336C18.908 6.25501 19 6.39281 19.1161 6.50889C19.2322 6.62496 19.37 6.71703 19.5216 6.77985C19.6733 6.84267 19.8358 6.875 20 6.875Z" fill="black"/>
<path d="M8.95143 10.7195C9.06744 10.8359 9.20525 10.9282 9.35698 10.9913C9.50871 11.0544 9.67139 11.0869 9.83571 11.087C10 11.0872 10.1627 11.0549 10.3146 10.9921C10.4664 10.9292 10.6044 10.8371 10.7206 10.7209C10.8368 10.6047 10.9289 10.4668 10.9917 10.315C11.0545 10.1631 11.0868 10.0004 11.0867 9.83608C11.0866 9.67177 11.0541 9.50909 10.991 9.35735C10.9279 9.20562 10.8356 9.0678 10.7192 8.95179L9.83537 8.06789C9.71937 7.95147 9.58156 7.85908 9.42982 7.79599C9.27807 7.73289 9.11538 7.70034 8.95104 7.7002C8.78671 7.70005 8.62395 7.73231 8.4721 7.79513C8.32024 7.85795 8.18226 7.9501 8.06606 8.0663C7.94986 8.18251 7.85771 8.32049 7.79489 8.47234C7.73206 8.6242 7.6998 8.78695 7.69995 8.95129C7.7001 9.11562 7.73265 9.27832 7.79574 9.43006C7.85883 9.5818 7.95123 9.71962 8.06764 9.83561L8.95143 10.7195Z" fill="black"/>
<path d="M5.625 18.75H4.375C4.04348 18.75 3.72554 18.8817 3.49112 19.1161C3.2567 19.3505 3.125 19.6685 3.125 20C3.125 20.3315 3.2567 20.6495 3.49112 20.8839C3.72554 21.1183 4.04348 21.25 4.375 21.25H5.625C5.95652 21.25 6.27446 21.1183 6.50888 20.8839C6.7433 20.6495 6.875 20.3315 6.875 20C6.875 19.6685 6.7433 19.3505 6.50888 19.1161C6.27446 18.8817 5.95652 18.75 5.625 18.75Z" fill="black"/>
<path d="M8.95146 29.2811L8.06759 30.1649C7.9514 30.281 7.85921 30.4188 7.7963 30.5705C7.73339 30.7222 7.70098 30.8848 7.70093 31.049C7.70088 31.2132 7.73318 31.3758 7.796 31.5275C7.85882 31.6793 7.95092 31.8171 8.06704 31.9332C8.18315 32.0494 8.32101 32.1414 8.47274 32.2043C8.62446 32.2671 8.78708 32.2994 8.95129 32.2993C9.11551 32.2993 9.2781 32.2669 9.42979 32.204C9.58148 32.1411 9.71928 32.0489 9.83532 31.9327L10.7192 31.0488C10.9534 30.8143 11.0848 30.4965 11.0847 30.1651C11.0846 29.8337 10.953 29.516 10.7186 29.2816C10.4843 29.0473 10.1665 28.9156 9.83516 28.9155C9.50378 28.9154 9.18592 29.0469 8.95146 29.2811Z" fill="black"/>
<path d="M20 33.125C19.8358 33.125 19.6733 33.1573 19.5216 33.2201C19.37 33.283 19.2322 33.375 19.1161 33.4911C19 33.6072 18.908 33.745 18.8451 33.8966C18.7823 34.0483 18.75 34.2108 18.75 34.375V35.625C18.75 35.9565 18.8817 36.2745 19.1161 36.5089C19.3505 36.7433 19.6685 36.875 20 36.875C20.3315 36.875 20.6495 36.7433 20.8839 36.5089C21.1183 36.2745 21.25 35.9565 21.25 35.625V34.375C21.25 34.2108 21.2177 34.0483 21.1549 33.8966C21.092 33.745 21 33.6072 20.8839 33.4911C20.7678 33.375 20.63 33.283 20.4784 33.2201C20.3267 33.1573 20.1642 33.125 20 33.125Z" fill="black"/>
<path d="M31.0485 29.2805C30.8139 29.047 30.4962 28.9161 30.1652 28.9165C29.8342 28.9169 29.5169 29.0486 29.2829 29.2826C29.0488 29.5167 28.9171 29.834 28.9167 30.165C28.9164 30.496 29.0473 30.8136 29.2807 31.0482L30.1646 31.9321C30.3991 32.1663 30.7169 32.2978 31.0483 32.2977C31.3797 32.2975 31.6975 32.1659 31.9318 31.9315C32.1661 31.6972 32.2978 31.3794 32.2979 31.0481C32.298 30.7167 32.1665 30.3988 31.9323 30.1644L31.0485 29.2805Z" fill="black"/>
<path d="M35.625 18.75H34.375C34.0435 18.75 33.7255 18.8817 33.4911 19.1161C33.2567 19.3505 33.125 19.6685 33.125 20C33.125 20.3315 33.2567 20.6495 33.4911 20.8839C33.7255 21.1183 34.0435 21.25 34.375 21.25H35.625C35.9565 21.25 36.2745 21.1183 36.5089 20.8839C36.7433 20.6495 36.875 20.3315 36.875 20C36.875 19.6685 36.7433 19.3505 36.5089 19.1161C36.2745 18.8817 35.9565 18.75 35.625 18.75Z" fill="black"/>
<path d="M30.1647 11.0851C30.3289 11.0853 30.4915 11.053 30.6432 10.9902C30.7949 10.9273 30.9326 10.8352 31.0486 10.7189L31.9324 9.83501C32.0485 9.71894 32.1405 9.58114 32.2034 9.42949C32.2662 9.27784 32.2985 9.11529 32.2985 8.95115C32.2985 8.787 32.2662 8.62445 32.2034 8.4728C32.1405 8.32115 32.0485 8.18335 31.9324 8.06728C31.8163 7.95121 31.6785 7.85914 31.5269 7.79632C31.3752 7.7335 31.2127 7.70117 31.0485 7.70117C30.8844 7.70117 30.7218 7.7335 30.5702 7.79632C30.4185 7.85914 30.2807 7.95121 30.1647 8.06728L29.2808 8.95119C29.106 9.126 28.9869 9.34873 28.9387 9.5912C28.8905 9.83368 28.9152 10.085 29.0098 10.3134C29.1044 10.5418 29.2646 10.737 29.4702 10.8744C29.6758 11.0117 29.9174 11.0851 30.1647 11.0851V11.0851Z" fill="black"/>
</svg>
