<svg width="40" height="40" viewBox="0 0 40 40" fill="none" xmlns="http://www.w3.org/2000/svg">
<path d="M12.8392 9.07271C12.724 8.79348 12.7244 8.47995 12.8402 8.20099C12.956 7.92202 13.1778 7.70041 13.4568 7.58483C13.7359 7.46924 14.0494 7.46912 14.3286 7.58449C14.6077 7.69986 14.8296 7.9213 14.9457 8.20018L16.0363 10.8332C16.0938 10.9716 16.1235 11.1199 16.1237 11.2698C16.1239 11.4197 16.0945 11.5681 16.0373 11.7066C15.98 11.8451 15.896 11.9709 15.7901 12.0769C15.6842 12.1829 15.5584 12.267 15.42 12.3243C15.2815 12.3817 15.1331 12.4112 14.9833 12.4111C14.8334 12.4111 14.685 12.3815 14.5466 12.324C14.4082 12.2666 14.2825 12.1824 14.1767 12.0763C14.0708 11.9702 13.9869 11.8443 13.9298 11.7058L12.8392 9.07271ZM4.81863 18.3271L7.45168 19.4177C7.59002 19.4753 7.73835 19.505 7.88818 19.5051C8.03802 19.5053 8.18641 19.4759 8.32487 19.4187C8.46334 19.3614 8.58917 19.2774 8.69515 19.1715C8.80114 19.0656 8.88521 18.9399 8.94255 18.8014C8.99989 18.663 9.02938 18.5146 9.02933 18.3648C9.02928 18.215 8.9997 18.0666 8.94227 17.9282C8.88484 17.7898 8.80069 17.6641 8.69464 17.5583C8.58858 17.4525 8.46271 17.3686 8.3242 17.3114L5.69116 16.2208C5.55281 16.1633 5.40448 16.1336 5.25465 16.1334C5.10482 16.1333 4.95643 16.1626 4.81796 16.2199C4.67949 16.2771 4.55367 16.3611 4.44768 16.467C4.3417 16.5729 4.25763 16.6987 4.20029 16.8371C4.14295 16.9755 4.11346 17.1239 4.1135 17.2737C4.11355 17.4236 4.14314 17.5719 4.20057 17.7103C4.258 17.8487 4.34214 17.9744 4.4482 18.0802C4.55425 18.1861 4.68013 18.27 4.81863 18.3271L4.81863 18.3271ZM32.1125 19.5049C32.2621 19.5048 32.4102 19.4752 32.5484 19.4177L35.1814 18.3271C35.3199 18.27 35.4458 18.1861 35.5519 18.0803C35.6579 17.9744 35.7421 17.8487 35.7995 17.7103C35.8569 17.5719 35.8865 17.4236 35.8866 17.2737C35.8866 17.1239 35.8571 16.9755 35.7998 16.8371C35.7424 16.6987 35.6584 16.5729 35.5524 16.467C35.4464 16.3611 35.3206 16.2771 35.1821 16.2199C35.0436 16.1627 34.8952 16.1333 34.7454 16.1334C34.5956 16.1336 34.4472 16.1633 34.3089 16.2208L31.6758 17.3114C31.4322 17.4124 31.231 17.5947 31.1067 17.8274C30.9824 18.06 30.9426 18.3286 30.9941 18.5873C31.0456 18.846 31.1852 19.0789 31.3892 19.2462C31.5931 19.4135 31.8487 19.5049 32.1125 19.5049ZM24.5808 12.3227C24.719 12.3801 24.8673 12.4097 25.0171 12.4098C25.1668 12.4098 25.3151 12.3804 25.4534 12.3231C25.5918 12.2658 25.7175 12.1818 25.8233 12.0758C25.9292 11.9699 26.0131 11.8442 26.0703 11.7058L27.1609 9.07271C27.276 8.79348 27.2757 8.47995 27.1599 8.20099C27.0441 7.92202 26.8223 7.70041 26.5432 7.58483C26.2642 7.46924 25.9506 7.46912 25.6715 7.58449C25.3924 7.69986 25.1704 7.9213 25.0544 8.20018L23.9638 10.8332C23.9065 10.9715 23.877 11.1198 23.877 11.2695C23.877 11.4192 23.9065 11.5674 23.9638 11.7057C24.0211 11.844 24.105 11.9697 24.2109 12.0756C24.3168 12.1814 24.4424 12.2654 24.5808 12.3227ZM35.96 24.5216H29.6221C29.7839 23.162 29.6558 21.7835 29.2462 20.477C28.8366 19.1706 28.1547 17.9657 27.2456 16.9419C26.3364 15.9181 25.2207 15.0986 23.9718 14.5374C22.7229 13.9762 21.3692 13.6861 20 13.6861C18.6308 13.6861 17.2772 13.9762 16.0283 14.5374C14.7794 15.0986 13.6636 15.9181 12.7545 16.9419C11.8453 17.9657 11.1635 19.1706 10.7539 20.477C10.3442 21.7835 10.2161 23.162 10.378 24.5216H4.04002C3.73768 24.5216 3.44771 24.6417 3.23392 24.8555C3.02013 25.0693 2.90002 25.3592 2.90002 25.6616C2.90002 25.9639 3.02013 26.2539 3.23392 26.4677C3.44771 26.6815 3.73768 26.8016 4.04002 26.8016H28.2391L28.2432 26.8019L28.2466 26.8016H35.96C36.2624 26.8016 36.5523 26.6815 36.7661 26.4677C36.9799 26.2539 37.1 25.9639 37.1 25.6616C37.1 25.3592 36.9799 25.0693 36.7661 24.8555C36.5523 24.6417 36.2624 24.5216 35.96 24.5216ZM31.4 30.2216H8.60002C8.29768 30.2216 8.00771 30.3417 7.79392 30.5555C7.58013 30.7693 7.46002 31.0592 7.46002 31.3616C7.46002 31.6639 7.58013 31.9539 7.79392 32.1677C8.00771 32.3815 8.29768 32.5016 8.60002 32.5016H31.4C31.7024 32.5016 31.9923 32.3815 32.2061 32.1677C32.4199 31.9539 32.54 31.6639 32.54 31.3616C32.54 31.0592 32.4199 30.7693 32.2061 30.5555C31.9923 30.3417 31.7024 30.2216 31.4 30.2216Z" fill="black"/>
</svg>
