<svg width="36" height="42" viewBox="0 0 36 42" fill="none" xmlns="http://www.w3.org/2000/svg">
<path d="M14.0049 3.99953H22.0039C23.1038 3.99953 24.0037 3.09963 24.0037 1.99976C24.0037 0.899894 23.1038 0 22.0039 0H14.0049C12.905 0 12.0051 0.899894 12.0051 1.99976C12.0051 3.09963 12.905 3.99953 14.0049 3.99953ZM32.0627 12.7785L33.5626 11.2787C33.9323 10.9066 34.1399 10.4034 34.1399 9.87884C34.1399 9.35429 33.9323 8.85105 33.5626 8.479L33.5426 8.459C33.1705 8.08923 32.6673 7.88169 32.1427 7.88169C31.6182 7.88169 31.1149 8.08923 30.7429 8.459L29.2431 9.95883C26.0581 7.39578 22.0926 5.99867 18.0044 5.99929C8.40552 5.99929 0.246481 13.9184 0.00650947 23.5172C-0.0581625 25.921 0.359607 28.3133 1.23514 30.5528C2.11066 32.7924 3.42619 34.8337 5.10399 36.5563C6.78178 38.2788 8.78781 39.6476 11.0035 40.5817C13.2193 41.5159 15.5998 41.9965 18.0044 41.995C21.3926 41.9969 24.7124 41.0416 27.5815 39.2393C30.4506 37.437 32.7522 34.8609 34.2213 31.8077C35.6905 28.7546 36.2673 25.3485 35.8854 21.9819C35.5035 18.6153 34.1784 15.425 32.0627 12.7785ZM20.0042 23.9972C20.0042 25.097 19.1043 25.9969 18.0044 25.9969C16.9045 25.9969 16.0046 25.097 16.0046 23.9972V15.9981C16.0046 14.8982 16.9045 13.9983 18.0044 13.9983C19.1043 13.9983 20.0042 14.8982 20.0042 15.9981V23.9972Z" fill="black"/>
</svg>
